<?xml version="1.0" encoding="UTF-8"?>
<svg version="1.1" xmlns="http://www.w3.org/2000/svg" width="3840" height="2160">
<path d="M0 0 C0.6175415 0.29624268 1.23508301 0.59248535 1.87133789 0.89770508 C7.0520841 3.60278786 10.75370658 7.19861973 12.625 12.8125 C13.16694423 23.42509616 12.28011479 33.82903525 11.08685303 44.3605957 C6.01495544 89.68835317 4.83041201 135.25432757 3.625 180.8125 C4.18037949 180.83035553 4.73575897 180.84821106 5.30796814 180.86660767 C24.25964832 181.49945291 43.16981984 182.63373033 62.09057617 183.859375 C65.4900338 184.07929677 68.88974409 184.29433294 72.28979492 184.50488281 C152.09004471 189.45105019 152.09004471 189.45105019 172.38623047 212.30981445 C175.10567282 215.60862558 177.05591398 218.53121638 177.125 222.875 C176.625 226.8125 176.625 226.8125 174.875 229.125 C163.66670157 234.94469341 150.35412961 234.89695814 138.0078125 235.20703125 C135.71058912 235.27321858 133.4133894 235.34023062 131.11621094 235.40795898 C129.31549133 235.46027176 129.31549133 235.46027176 127.47839355 235.51364136 C106.40666003 236.14300615 85.39418707 237.12425265 64.375 238.75 C63.32105042 238.82940826 62.26710083 238.90881653 61.18121338 238.9906311 C50.42561076 239.8106875 39.72619762 240.82727756 29.04296875 242.33203125 C28.18656799 242.45239243 27.33016724 242.5727536 26.44781494 242.69676208 C18.67785412 243.84883924 10.88170122 245.02727865 5.1875 250.875 C-3.41809111 262.62113729 -4.19581234 279.45019853 -5.39697266 293.49755859 C-5.48277903 294.49804419 -5.5685854 295.49852978 -5.65699196 296.52933311 C-6.5250398 307.04331227 -7.0037212 317.56078668 -7.3984375 328.1015625 C-7.48097046 330.21391872 -7.56352105 332.32627425 -7.64608765 334.43862915 C-8.65205115 360.68143531 -9.34481312 386.93398283 -10 413.1875 C-10.03255764 414.48236328 -10.06511528 415.77722656 -10.09865952 417.11132812 C-23.60939775 553.66542995 -23.60939775 553.66542995 14.91552734 676.73901367 C19.18144169 680.97281592 22.65953529 684.3283425 28.6875 685.3125 C42.67329323 683.53652626 56.4615209 670.3344027 64.93359375 659.55078125 C70.22477282 652.42558472 74.48050859 644.64189241 78.625 636.8125 C78.9869043 636.13268066 79.34880859 635.45286133 79.72167969 634.75244141 C92.74460265 609.84688013 99.98427641 581.98512997 106.58203125 554.8203125 C109.75692788 541.75908108 113.02952274 528.83553739 117.25 516.0625 C117.59796631 514.9988623 117.94593262 513.93522461 118.30444336 512.83935547 C120.09438135 507.58514254 122.12988857 502.69647528 124.70703125 497.77734375 C127.66783279 492.01773265 129.33782476 486.43904991 130.6875 480.125 C131.05681641 478.45739624 131.05681641 478.45739624 131.43359375 476.75610352 C134.53921419 462.22752285 136.55384145 447.51547068 138.625 432.8125 C146.14683341 379.53406163 154.31553777 324.48639836 178.625 275.8125 C178.97739746 275.08756348 179.32979492 274.36262695 179.69287109 273.61572266 C192.64245598 247.08356724 211.18028184 224.54163939 237.625 210.8125 C238.99591797 210.08740234 238.99591797 210.08740234 240.39453125 209.34765625 C275.0405474 192.25839191 318.34272817 200.22699924 353.23242188 212.03320312 C379.56140173 221.3530716 408.61785237 231.74718955 429.625 250.8125 C430.27855469 251.38484375 430.93210937 251.9571875 431.60546875 252.546875 C457.80676884 276.83947111 456.58486823 320.33676565 458.44775391 353.14624023 C459.01263518 362.75295862 459.8191853 372.27288005 461.10546875 381.8125 C461.22744629 382.7226738 461.34942383 383.6328476 461.47509766 384.57060242 C464.06788931 402.80207914 472.87244407 413.29711209 487.0625 424.5625 C491.44518643 428.41071248 494.35686216 432.65389841 494.85668945 438.54174805 C495.04985451 447.89353077 493.54022628 456.20278963 491.37649536 465.25457764 C487.70724555 480.67610839 484.90893477 495.99249374 483.625 511.8125 C483.5336377 512.83311523 483.44227539 513.85373047 483.34814453 514.90527344 C482.33213325 527.68781818 482.38232431 540.49710762 482.375 553.3125 C482.37399292 554.53360474 482.37298584 555.75470947 482.37194824 557.01281738 C481.63028084 613.69824694 481.63028084 613.69824694 505.5625 663.3125 C511.69614411 668.949446 517.2901745 670.41484472 525.5078125 670.1484375 C535.76046186 669.04351539 542.80090614 664.38443976 549.625 656.8125 C576.54215596 623.05924094 573.75318526 563.90181921 576.5234375 522.5390625 C590.62195915 312.47959281 590.62195915 312.47959281 656.625 233.8125 C657.15343506 233.25780029 657.68187012 232.70310059 658.22631836 232.1315918 C662.49717908 227.73792483 667.04790489 223.9354246 671.9375 220.25 C672.68805664 219.6828125 673.43861328 219.115625 674.21191406 218.53125 C692.10128025 205.14706761 709.63919078 199.38733958 731.97900391 202.09814453 C744.32473758 204.20287397 755.67247976 209.6854498 767.03173828 214.73461914 C782.33814136 221.53236467 797.95509451 227.38946554 813.91015625 232.48828125 C844.67675952 242.34220126 873.260257 254.77537495 891.625 282.8125 C892.04652344 283.45445312 892.46804688 284.09640625 892.90234375 284.7578125 C902.58976296 301.6468226 899.79464075 326.69252201 899.94140625 345.46875 C899.96202681 347.71033059 899.98302441 349.95190773 900.00437927 352.19348145 C900.05907402 358.03925761 900.10871095 363.88506572 900.15722656 369.730896 C900.20783042 375.71776102 900.26331166 381.70458073 900.31835938 387.69140625 C900.42529567 399.39839862 900.52687866 411.10543066 900.625 422.8125 C904.69483158 424.53889639 908.76533081 426.26371336 912.8359375 427.98828125 C913.97023193 428.46946411 915.10452637 428.95064697 916.27319336 429.44641113 C927.01839223 433.99716149 937.81124628 438.42752451 948.625 442.8125 C947.05232818 448.27731493 944.51225624 452.97255594 941.8125 457.9375 C940.07258122 461.22356471 938.34770802 464.51738735 936.625 467.8125 C935.83609375 469.31296875 935.83609375 469.31296875 935.03125 470.84375 C922.21303721 498.12353618 923.62101442 533.68128053 922.171875 563.21484375 C922.07468359 565.18230088 922.07468359 565.18230088 921.97552872 567.18950462 C920.45846805 598.07067195 919.51567974 628.96624805 918.62304688 659.8706665 C918.31261032 670.61544864 917.99664462 681.36006547 917.67320931 692.10446423 C917.53454709 696.72123403 917.40216605 701.33815831 917.27120972 705.95515442 C917.20037006 708.34421356 917.12934579 710.73326723 917.05810547 713.12231445 C917.02901093 714.19461304 916.99991638 715.26691162 916.96994019 716.3717041 C916.79969102 721.91723005 916.41944766 727.32049674 915.625 732.8125 C916.68859741 732.77322388 916.68859741 732.77322388 917.77368164 732.7331543 C944.13545968 731.888979 944.13545968 731.888979 956.625 737.8125 C957.60082031 738.25851562 958.57664062 738.70453125 959.58203125 739.1640625 C968.61244397 743.68558383 978.98667516 750.53585032 983.625 759.8125 C984.17764946 763.77315449 983.67923494 765.70403011 981.875 769.3125 C975.75289513 777.02055405 965.06014829 779.96357265 955.69140625 781.35546875 C946.55673581 782.37813584 937.27722542 782.03655898 928.1006012 781.90519714 C926.88724877 781.88794681 925.67389635 781.87069647 924.42377567 781.85292339 C923.5001797 781.83958367 922.57658373 781.82624395 921.625 781.8125 C921.629214 782.51042538 921.633428 783.20835075 921.6377697 783.92742538 C921.74935018 805.72564567 921.37700138 827.49968665 920.88314676 849.29152393 C920.79738208 853.09505335 920.71381012 856.89862983 920.63020885 860.70220733 C920.43170932 869.73285382 920.22994117 878.76342292 920.02587891 887.79394531 C919.84223081 895.92278106 919.66186412 904.05168087 919.48486328 912.18066406 C917.79684415 989.66200714 917.79684415 989.66200714 916.578125 1024.89453125 C916.52057226 1026.57414066 916.52057226 1026.57414066 916.46185684 1028.28768158 C911.14156391 1181.40121654 911.14156391 1181.40121654 861.625 1229.8125 C849.95800658 1239.50301263 837.15366449 1239.96840051 822.59375 1240.015625 C821.91071304 1240.01845238 821.22767609 1240.02127975 820.52394104 1240.02419281 C816.88314438 1240.03916671 813.24238688 1240.04839786 809.6015625 1240.05273438 C806.66002537 1240.05705217 803.7187927 1240.07067916 800.77734375 1240.09375 C755.33460723 1240.44271433 697.64384427 1239.11878696 662.625 1205.8125 C662.12597168 1205.35681641 661.62694336 1204.90113281 661.11279297 1204.43164062 C646.22076827 1190.78833977 637.48546307 1175.32404954 631.875 1155.875 C631.67616211 1155.19663086 631.47732422 1154.51826172 631.27246094 1153.81933594 C627.80204145 1141.03890601 627.2115936 1127.97167228 627.25 1114.8125 C627.2512085 1114.03559814 627.25241699 1113.25869629 627.25366211 1112.45825195 C627.60864725 1027.28779192 664.5685851 938.51648128 714.625 870.8125 C715.39714844 869.76449219 716.16929687 868.71648438 716.96484375 867.63671875 C725.10618368 856.68418111 733.70204439 846.13430211 742.625 835.8125 C743.06747826 835.2992429 743.50995651 834.78598579 743.9658432 834.25717545 C750.69481065 826.52256388 757.88020651 819.92644725 765.8938446 813.54917908 C804.49417889 783.70325441 804.49417889 783.70325441 823.44467163 740.87536621 C825.40463633 718.9088791 823.12392779 696.52001154 819.625 674.8125 C819.22773712 675.52269287 818.83047424 676.23288574 818.4211731 676.96459961 C816.59623737 680.22659633 814.77077849 683.4883 812.9453125 686.75 C812.32052002 687.86697266 811.69572754 688.98394531 811.05200195 690.13476562 C800.49276389 708.99894469 789.61823607 727.23324495 775.625 743.8125 C774.96628906 744.62847656 774.30757812 745.44445313 773.62890625 746.28515625 C767.54613798 753.50635087 760.57651564 758.8265284 752.625 763.8125 C751.83867187 764.31265625 751.05234375 764.8128125 750.2421875 765.328125 C729.16860092 776.05374971 689.53876874 763.83817673 668.2734375 757.375 C632.40245797 745.69952215 613.09406749 721.88402273 596.4453125 689.37109375 C593.13883146 682.86790418 589.8467751 676.35814871 586.625 669.8125 C582.89114202 673.34845031 579.90108442 677.06265537 577 681.3125 C560.40933803 704.9384031 538.31504352 723.37146197 509.40234375 729.33984375 C486.38075393 732.22051838 468.91195527 727.34383774 450.53515625 713.1640625 C446.06223996 709.54970598 441.80334582 705.7620797 437.625 701.8125 C436.40876953 700.69294922 436.40876953 700.69294922 435.16796875 699.55078125 C427.96298896 692.6861942 422.22931155 684.99182814 416.625 676.8125 C416.01398437 675.92433594 415.40296875 675.03617188 414.7734375 674.12109375 C410.50562083 667.47862011 408.02089967 660.29690486 405.625 652.8125 C405.39361328 652.08998047 405.16222656 651.36746094 404.92382812 650.62304688 C403.46103251 646.0285208 402.03248199 641.42424948 400.625 636.8125 C397.44073617 643.54315963 394.39208543 650.31344578 391.49291992 657.17089844 C381.30774018 681.23808447 370.36015657 705.49123845 353.625 725.8125 C352.95500977 726.6463623 352.95500977 726.6463623 352.27148438 727.49707031 C335.61292041 748.17938754 314.69532158 762.27422291 287.89599609 765.58544922 C257.59507196 768.61489014 213.41622914 760.81028945 188.92578125 741.70703125 C181.53277123 734.77826048 176.03789838 726.30999811 170.625 717.8125 C170.0067334 716.84860352 170.0067334 716.84860352 169.37597656 715.86523438 C155.07562743 693.30271737 141.08012213 666.81884338 138.625 639.8125 C135.13468532 643.09995878 132.54246731 646.20349901 130.1875 650.375 C129.86096436 650.95306396 129.53442871 651.53112793 129.19799805 652.12670898 C126.18543827 657.57012548 123.46669367 663.15437544 120.7253418 668.73779297 C111.63639394 687.24166557 101.69063168 704.79154687 88.625 720.8125 C87.97015625 721.66972656 87.3153125 722.52695313 86.640625 723.41015625 C81.74020175 729.70663031 76.28710492 735.38755118 70.6875 741.0625 C69.57858398 742.19788208 69.57858398 742.19788208 68.44726562 743.35620117 C61.29605439 750.49877947 53.50744585 756.16830624 44.4375 760.625 C43.30957031 761.18832031 42.18164062 761.75164063 41.01953125 762.33203125 C22.50101671 770.40857557 0.94089711 767.50102733 -17.43823242 760.41625977 C-54.9236585 745.00757598 -79.16463553 708.96728717 -94.36938477 672.89428711 C-114.73239412 623.1460562 -115.48709782 571.67485581 -115.42749023 518.71582031 C-115.42686801 517.59996064 -115.42624578 516.48410096 -115.4256047 515.33442736 C-115.41076407 491.19371504 -115.23051626 467.05514451 -115.00407338 442.91561794 C-114.96098168 438.295054 -114.91932887 433.67447742 -114.87760442 429.05390096 C-114.77909914 418.15261199 -114.67809166 407.2513483 -114.57543945 396.35009766 C-114.47049592 385.20008801 -114.37025322 374.05004267 -114.27216727 362.89997077 C-114.1866475 353.19923775 -114.09807709 343.49853568 -114.00715441 333.7978518 C-113.95339124 328.05783213 -113.90073125 322.31780836 -113.8511219 316.57775116 C-113.4563562 271.16648996 -113.4563562 271.16648996 -112.375 251.8125 C-113.03700346 251.7511748 -113.69900692 251.68984961 -114.38107109 251.62666607 C-118.80604151 251.20320183 -123.17821515 250.78050929 -127.53564453 249.8762207 C-128.41925156 249.69522827 -129.30285858 249.51423584 -130.21324158 249.32775879 C-131.13544998 249.1332312 -132.05765839 248.93870361 -133.0078125 248.73828125 C-133.99467545 248.53400513 -134.98153839 248.329729 -135.99830627 248.1192627 C-139.16690364 247.4608577 -142.33359442 246.79386106 -145.5 246.125 C-146.57980133 245.89807465 -147.65960266 245.67114929 -148.77212524 245.43734741 C-221.49235005 230.13647492 -221.49235005 230.13647492 -232.375 213.8125 C-235.35379597 208.10919552 -237.375 202.27220441 -237.375 195.8125 C-225.84189052 180.9482254 -188.41921817 180.78080297 -171.36328125 178.609375 C-157.04842842 176.92877866 -142.95809812 176.68858434 -128.5625 176.75 C-126.50195422 176.75502612 -124.44140724 176.75958705 -122.38085938 176.76367188 C-117.37887639 176.7745869 -112.37695163 176.79178996 -107.375 176.8125 C-107.31892578 175.47360718 -107.31892578 175.47360718 -107.26171875 174.10766602 C-106.76504399 163.49692566 -105.91695663 152.92094471 -105 142.33984375 C-104.90327499 141.2232028 -104.90327499 141.2232028 -104.80459595 140.08400345 C-104.33189136 134.6389988 -103.85378914 129.19447241 -103.375 123.75 C-102.89547291 118.29263882 -102.41791919 112.83511407 -101.94403076 107.37726021 C-101.75716251 105.23447502 -101.56741489 103.09195937 -101.37744141 100.94944763 C-100.12630016 86.68111684 -99.3215859 72.41549795 -98.91015625 58.09765625 C-98.8316647 55.59178795 -98.75287973 53.08592882 -98.67382812 50.58007812 C-98.55453621 46.72574889 -98.4373953 42.87139539 -98.32543945 39.0168457 C-97.02046914 -5.45122071 -97.02046914 -5.45122071 -92.375 -13.1875 C-71.18753766 -31.21938284 -20.89412091 -10.15013485 0 0 Z M717.93359375 310.1640625 C683.14979013 350.06832452 669.92685306 405.16850249 664.85217285 456.52404785 C664.7025032 458.03176248 664.549826 459.53918204 664.3939209 461.04626465 C661.49555103 489.09653802 661.33505559 517.17680243 661.31492615 545.34706879 C661.3125337 548.20967789 661.30721284 551.07227104 661.30163574 553.93487549 C661.26193558 581.78982599 661.73070307 609.53896998 665.5 637.1875 C665.67217041 638.47422607 665.84434082 639.76095215 666.02172852 641.08666992 C668.47249047 658.68334138 671.42860645 676.13554925 686.12109375 687.79296875 C692.77371718 692.58720703 699.16011143 696.36348482 707.6875 695.63671875 C728.12465192 692.02372225 746.23894407 671.75931486 757.76660156 655.57104492 C802.92979116 590.05058989 809.61763696 494.90542663 815.625 405.8125 C815.69847656 404.63220215 815.77195312 403.4519043 815.84765625 402.23583984 C816.6240059 388.99866529 816.73778083 375.7464756 816.79922485 362.48974609 C816.80791651 360.69594751 816.81934659 358.9021596 816.83383179 357.10839844 C817.04027479 328.43811729 817.04027479 328.43811729 802.546875 304.6953125 C801.57591197 303.73134855 800.60208577 302.77025733 799.625 301.8125 C798.80515625 301.00554687 797.9853125 300.19859375 797.140625 299.3671875 C785.20498415 288.01288629 785.20498415 288.01288629 770.37109375 282.625 C751.61529465 283.56376784 730.4924171 297.04557679 717.93359375 310.1640625 Z M282.625 315.8125 C281.86703125 316.47636719 281.1090625 317.14023437 280.328125 317.82421875 C229.16175612 365.45248765 225.37815646 465.83739158 222.84765625 531.25219727 C219.49528803 612.22708735 219.49528803 612.22708735 241.625 688.8125 C242.10710937 689.77285156 242.58921875 690.73320313 243.0859375 691.72265625 C247.45208077 699.71921146 254.00512261 706.48209282 262.625 709.8125 C272.42608814 712.57690947 281.31006395 709.68233164 290.0625 705.1875 C296.14660662 701.71209354 301.40104345 697.46034211 306.625 692.8125 C307.39714844 692.13574219 308.16929687 691.45898438 308.96484375 690.76171875 C354.43303127 648.33007099 356.70285188 562.48647739 363.58738708 504.77099609 C372.33910456 431.42228741 372.33910456 431.42228741 384.328125 408.89453125 C393.56035536 386.95408017 387.58499702 357.11890332 379.25390625 335.68359375 C372.95709466 320.33915801 364.15719347 306.87646458 348.83984375 299.46484375 C346.45159608 298.48351665 344.08673851 297.58919825 341.625 296.8125 C341.03332031 296.62171875 340.44164062 296.4309375 339.83203125 296.234375 C318.18245291 292.09604852 298.41368641 301.59783908 282.625 315.8125 Z M812.83203125 809.59375 C811.6946637 810.82796137 810.56351155 812.06791948 809.4375 813.3125 C808.84525635 813.95960938 808.2530127 814.60671875 807.64282227 815.2734375 C803.57284963 819.73233231 799.55864072 824.23291406 795.625 828.8125 C794.72574107 829.83505831 793.82595133 830.85714994 792.92578125 831.87890625 C770.08782955 857.95124192 753.18776437 887.9858655 737.625 918.8125 C737.13 919.7917041 736.635 920.7709082 736.125 921.77978516 C727.61436888 938.74286926 720.41862648 956.11160629 713.625 973.8125 C713.23828125 974.80878418 712.8515625 975.80506836 712.453125 976.83154297 C700.73565372 1007.14943855 692.32213727 1039.3417695 689.625 1071.8125 C689.51542969 1073.03839844 689.40585938 1074.26429688 689.29296875 1075.52734375 C687.00671048 1104.57806555 686.92605294 1143.40601536 706.8515625 1166.85546875 C707.43679688 1167.50128906 708.02203125 1168.14710938 708.625 1168.8125 C709.44097656 1169.76576172 709.44097656 1169.76576172 710.2734375 1170.73828125 C717.30151402 1178.44276889 726.33702121 1181.98772533 736.625 1182.8125 C749.81742869 1183.1389502 761.19074793 1177.7704299 770.625 1168.8125 C798.84964348 1141.59275869 808.50141056 1096.78083554 813.9375 1059.5625 C814.08469482 1058.5614624 814.23188965 1057.5604248 814.38354492 1056.52905273 C817.23043038 1035.32816845 818.05404642 1013.85918097 818.75 992.5 C818.81253967 990.60311432 818.81253967 990.60311432 818.87634277 988.66790771 C820.82528037 928.03940989 819.10016168 867.43257361 817.625 806.8125 C815.20426783 806.57729378 815.20426783 806.57729378 812.83203125 809.59375 Z " fill="#030303" transform="translate(1412.375,475.1875)"/>
<path d="M0 0 C4.39444948 1.98943257 8.80134121 3.94560438 13.22459412 5.8704834 C14.72385437 6.52995972 14.72385437 6.52995972 16.25340271 7.20275879 C18.01927377 7.9793016 19.78877079 8.74769003 21.56297302 9.50500488 C36.66333741 16.22618427 47.27709851 28.13997633 53.16600037 43.42907715 C62.58899628 69.38671612 64.89122209 96.63069681 67.8110199 123.88513184 C70.19815818 159.89032903 70.19815818 159.89032903 88.96287537 189.0111084 C89.91420349 189.76649902 90.86553162 190.52188965 91.84568787 191.3001709 C97.29923849 195.64666561 102.10050484 200.12712182 104.34568787 206.8626709 C105.11539499 215.48830559 103.62025722 223.30929575 101.52470398 231.64614868 C95.60127299 255.34538932 93.20828892 279.17719095 93.14256287 303.60095215 C93.1383218 304.69487809 93.1383218 304.69487809 93.13399506 305.81090355 C93.1191183 309.68745639 93.10982221 313.56397328 93.10545349 317.44055176 C93.10111621 320.56306955 93.08739452 323.68530363 93.06443787 326.80773926 C92.94372739 343.58127655 93.18101975 360.20635271 94.74412537 376.9173584 C94.83904896 377.93277175 94.83904896 377.93277175 94.9358902 378.9686985 C96.43319666 394.59940203 97.98665314 410.74533898 105.34568787 424.8626709 C105.7981488 425.75212402 106.25060974 426.64157715 106.71678162 427.5579834 C110.56591751 434.54692932 115.78001163 440.78462011 123.34568787 443.8626709 C130.20423802 444.86579218 135.68738529 443.82455638 141.34568787 439.8626709 C178.25051111 411.47896131 193.86814309 349.28233396 199.96287537 305.51574707 C207.69883772 245.51844481 206.94476563 184.2629478 208.27920532 123.87085724 C208.34766846 120.77305325 208.41630632 117.67525316 208.48497009 114.57745361 C209.11788912 86.00613128 209.73738085 57.4345274 210.34568787 28.8626709 C213.0532733 27.50887818 214.74177536 27.98343342 217.74729919 28.32824707 C218.88061172 28.4555571 220.01392426 28.58286713 221.18157959 28.71403503 C222.41780563 28.85976456 223.65403168 29.00549408 224.92771912 29.15563965 C226.20684677 29.30294022 227.48597443 29.45024078 228.80386353 29.602005 C231.52898975 29.91667904 234.25353229 30.23593768 236.97776794 30.55822754 C239.73001865 30.8834651 242.48284669 31.2026213 245.23655701 31.51525879 C258.34460993 33.00364941 271.44279542 34.50740003 284.41990662 36.91345215 C285.25125626 37.06428757 286.0826059 37.21512299 286.93914795 37.37052917 C291.47777013 38.26565055 295.34579587 39.42317424 299.34568787 41.8626709 C302.15701686 46.07966438 302.26456994 50.07588051 302.84568787 55.0501709 C303.03687195 56.68006958 303.03687195 56.68006958 303.23191833 58.34289551 C304.33901245 68.51824918 304.95598998 78.70523289 305.47068787 88.9251709 C305.50911804 89.66705658 305.54754822 90.40894226 305.58714294 91.17330933 C307.49669514 128.9259674 307.5699712 166.76019895 307.84568787 204.5501709 C308.04191427 231.37160838 308.24189756 258.19067538 308.81443787 285.00720215 C308.83324509 285.9349262 308.85205231 286.86265026 308.87142944 287.81848717 C309.07918266 297.86709549 309.41213176 307.85065192 310.34568787 317.8626709 C312.82461209 309.77629196 312.82461209 309.77629196 315.3031311 301.68978882 C315.71640309 300.34132828 316.12967727 298.99286842 316.54295349 297.64440918 C316.75481954 296.95312109 316.96668558 296.261833 317.18497181 295.54959679 C318.5026654 291.25047092 319.82105621 286.95155954 321.13995552 282.65280342 C326.93871249 263.76411845 326.93871249 263.76411845 332.66990662 244.8548584 C365.33492042 136.38640916 365.33492042 136.38640916 399.34568787 116.8626709 C413.52035979 110.17304156 429.49459975 109.8645363 444.34568787 114.8626709 C476.74851472 127.26549775 476.74851472 127.26549775 483.34568787 133.8626709 C484.20589407 139.41561367 484.52282214 144.8659036 484.61106873 150.47753906 C484.62755179 151.30769106 484.64403486 152.13784307 484.66101742 152.99315119 C484.71485518 155.75493628 484.7626853 158.51679165 484.81053162 161.27868652 C484.84808978 163.26686808 484.88603314 165.2550424 484.92433167 167.24320984 C485.00584788 171.51501936 485.0847498 175.78686627 485.16163635 180.0587616 C485.28337765 186.81628281 485.41157977 193.57367207 485.54075623 200.33105469 C485.83728485 215.89428179 486.12536958 231.45766305 486.41339111 247.0210495 C486.67750693 261.28797858 486.94340944 275.55486835 487.21613789 289.82163572 C487.34425645 296.53642391 487.46826987 303.25127151 487.58912659 309.96619415 C487.66519062 314.14573575 487.74475792 318.32520538 487.82526779 322.50466347 C487.86181967 324.43957615 487.89691814 326.37451692 487.930439 328.30948448 C487.97648039 330.95568133 488.02776792 333.60172805 488.08030701 336.24780273 C488.09227584 337.00890555 488.10424467 337.77000836 488.11657619 338.5541749 C488.21961309 343.3878308 488.67686871 348.07347103 489.34568787 352.8626709 C489.55627838 352.25960114 489.7668689 351.65653137 489.98384094 351.03518677 C550.91891809 176.57644419 550.91891809 176.57644419 579.45133972 112.86755371 C580.82293176 109.79282121 582.18007609 106.71175065 583.53814697 103.63102722 C585.38745229 99.43598963 587.24131454 95.24297018 589.09568787 91.0501709 C589.45278839 90.24212006 589.80988892 89.43406921 590.17781067 88.60153198 C591.18431923 86.3267474 592.19412298 84.05345774 593.20506287 81.78063965 C593.6603109 80.75027588 593.6603109 80.75027588 594.12475586 79.69909668 C596.23083516 74.9775236 596.23083516 74.9775236 597.34568787 73.8626709 C606.17858312 73.22348447 615.11638283 74.2793336 623.90818787 75.1126709 C624.61467468 75.17924896 625.3211615 75.24582703 626.04905701 75.31442261 C657.82556811 78.36525887 682.63810231 88.54936709 707.34568787 108.8626709 C708.0682074 109.45378662 708.79072693 110.04490234 709.53514099 110.65393066 C710.60151794 111.55196411 710.60151794 111.55196411 711.68943787 112.46813965 C712.65140076 113.27481079 712.65140076 113.27481079 713.63279724 114.09777832 C719.18235489 119.81581598 719.63072553 127.00582349 719.52583313 134.57479858 C719.22406873 140.08236947 718.28175764 145.42223594 717.25584412 150.83532715 C716.9219442 152.64795799 716.9219442 152.64795799 716.58129883 154.49720764 C714.29244013 166.64159029 711.49615582 178.65870214 708.63978577 190.67977905 C703.83721192 210.97774987 699.2089438 231.05409476 697.34568787 251.8626709 C697.24256287 252.94773926 697.13943787 254.03280762 697.03318787 255.15075684 C696.32981654 262.71419661 695.78931703 270.27987599 695.34568787 277.8626709 C695.28784119 278.81287109 695.22999451 279.76307129 695.1703949 280.74206543 C688.51823923 366.95709271 688.51823923 366.95709271 715.40818787 445.1126709 C720.31880974 450.22399939 725.94858491 452.56467941 732.90818787 453.1751709 C742.59355374 452.99514551 750.35447593 448.14973199 757.34568787 441.8626709 C758.06240662 441.23876465 758.77912537 440.6148584 759.51756287 439.9720459 C788.10080144 413.41598736 798.60997043 370.39083944 806.21531677 333.7779541 C814.28961439 295.20707229 814.28961439 295.20707229 827.28318787 284.4251709 C832.26045222 281.88575031 835.65569554 281.34708002 841.03318787 282.9876709 C845.49919907 285.51560177 847.73833302 288.06780136 849.39256287 292.9564209 C858.41032921 336.64248897 837.18747554 387.54900637 819.34568787 426.8626709 C818.73974792 428.2227124 818.73974792 428.2227124 818.12156677 429.61022949 C803.79448893 461.65717784 782.29346222 503.58129097 747.63475037 517.33532715 C721.90058306 526.56802114 691.27317677 526.5934952 666.16746521 515.23376465 C637.14540638 501.28019406 617.12195576 463.83411835 606.53367615 434.62243652 C599.23483161 413.53199135 597.54383649 391.01177754 596.31687927 368.86901855 C596.27553022 368.14495607 596.23418116 367.42089358 596.1915791 366.6748898 C595.31483343 351.3101897 594.6882617 335.93803465 594.13325453 320.55870771 C594.00118381 316.9219416 593.86476623 313.28533798 593.72889709 309.64871216 C593.47458204 302.82529346 593.2239256 296.001746 592.97473681 289.17813838 C592.6898773 281.38295011 592.40070577 273.58792344 592.11125255 265.79290462 C591.51808532 249.81632969 590.9300715 233.83956968 590.34568787 217.8626709 C580.95945851 241.28326586 580.95945851 241.28326586 571.65818787 264.7376709 C571.24533539 265.78518021 571.24533539 265.78518021 570.82414246 266.85385132 C564.5763913 282.72220614 558.66467146 298.65908514 553.34568787 314.8626709 C553.09746277 315.61397278 552.84923767 316.36527466 552.5934906 317.13934326 C527.38424814 389.73287804 527.38424814 389.73287804 514.84568787 465.1126709 C514.3347582 473.2769012 512.29605471 479.39727845 506.34568787 485.1751709 C495.19751365 494.25139826 481.69890378 496.25802742 467.78318787 496.2376709 C466.06325623 496.23525391 466.06325623 496.23525391 464.30857849 496.23278809 C455.06506509 496.09999395 447.08897264 494.86784782 438.34568787 491.8626709 C437.44463318 491.58552246 436.54357849 491.30837402 435.61521912 491.02282715 C423.08752805 486.70087331 411.55573876 477.667684 405.59568787 465.8001709 C397.93774733 447.47132961 398.17341887 425.39497265 397.34568787 405.8001709 C397.30555573 404.89970032 397.26542358 403.99922974 397.22407532 403.07147217 C396.65745965 390.33729341 396.23331456 377.60049791 395.88084412 364.85876465 C395.86162777 364.16521503 395.84241142 363.47166542 395.82261276 362.75709915 C395.74394221 359.9134627 395.66556307 357.06981827 395.58726692 354.22617149 C394.9584261 331.39779109 394.22982421 308.5985633 392.84568787 285.8001709 C392.7858371 284.7958905 392.72598633 283.79161011 392.6643219 282.75689697 C392.08092516 273.10946787 391.38640982 263.47964387 390.37693787 253.86657715 C390.30414612 253.14236069 390.23135437 252.41814423 390.15635681 251.67198181 C389.68978175 247.50963953 388.81333012 243.78417118 387.34568787 239.8626709 C383.76260466 244.53941019 381.25688613 248.86620143 379.40818787 254.4876709 C379.03270813 255.60250854 379.03270813 255.60250854 378.64964294 256.73986816 C377.86394231 259.10876665 377.10260036 261.48443418 376.34568787 263.8626709 C376.11268982 264.57503906 375.87969177 265.28740723 375.63963318 266.0213623 C358.65969576 318.5537921 352.77607121 375.41404351 345.34568787 429.8626709 C344.27247375 437.72110215 343.19114443 445.57828591 342.09156799 453.43307495 C341.67590761 456.42272125 341.27113569 459.41369505 340.8669281 462.40490723 C333.93898687 512.54488682 333.93898687 512.54488682 319.13475037 524.60876465 C308.33183559 532.18023985 292.03297792 528.66747366 279.84568787 527.1126709 C279.13392395 527.02274872 278.42216003 526.93282654 277.68882751 526.84017944 C235.76539957 521.49265893 235.76539957 521.49265893 223.15818787 506.3001709 C210.93727773 488.71398314 210.25122851 464.00138283 207.76853943 443.3729248 C207.31165559 439.58015587 206.83734374 435.78984498 206.3578949 431.99987793 C206.01517694 429.28813003 205.67984333 426.57548567 205.34568787 423.8626709 C204.36374175 425.33559007 203.38184295 426.8085408 202.40013123 428.28161621 C201.51627628 429.60698507 200.63164945 430.93183946 199.74632263 432.25622559 C197.25485964 435.98588323 194.77842854 439.72429772 192.32615662 443.4798584 C175.49851006 469.17185133 154.03812988 493.30033983 122.91111755 500.83068848 C100.10844107 505.40164347 77.96607965 500.86145958 58.68943787 488.1048584 C56.48811494 486.43836393 54.41540671 484.68935457 52.34568787 482.8626709 C51.56193787 482.22071777 50.77818787 481.57876465 49.97068787 480.9173584 C28.43287366 462.67752199 18.51159369 435.97325792 7.34568787 410.8626709 C5.22894799 414.03778071 3.78095069 417.29377678 2.29100037 420.7845459 C1.67687797 422.20576018 1.06218997 423.62673016 0.44700623 425.04748535 C0.1250528 425.7924527 -0.19690063 426.53742004 -0.52861023 427.30496216 C-17.07278268 465.45731421 -41.86565519 519.25716779 -83.65431213 535.8626709 C-91.92179573 538.75177725 -99.68791095 539.37382075 -108.40431213 539.3001709 C-109.67274963 539.29259766 -110.94118713 539.28502441 -112.24806213 539.27722168 C-124.01942807 539.07482746 -135.21107201 537.5709459 -146.65431213 534.8626709 C-147.54022034 534.65368164 -148.42612854 534.44469238 -149.33888245 534.22937012 C-184.13615386 525.72436145 -210.18799003 509.73581964 -229.00294495 478.97961426 C-235.08318448 468.70994139 -239.5462294 458.04246362 -243.65431213 446.8626709 C-244.33615869 445.03437984 -245.0184549 443.20625641 -245.70118713 441.3782959 C-247.37380865 436.88076601 -249.02102564 432.37462482 -250.65431213 427.8626709 C-253.02317656 430.83071868 -254.74128357 433.82752805 -256.40431213 437.2376709 C-256.92469055 438.29566895 -257.44506897 439.35366699 -257.98121643 440.44372559 C-258.53333801 441.57197754 -259.08545959 442.70022949 -259.65431213 443.8626709 C-270.53413083 465.80797593 -281.3542224 486.31294062 -298.65431213 503.8626709 C-299.45481995 504.67606934 -300.25532776 505.48946777 -301.08009338 506.32751465 C-316.69646406 521.27935891 -337.21786453 528.46379235 -358.65821838 528.1126709 C-370.5529201 527.52280223 -381.82033855 524.82468767 -392.65431213 519.8626709 C-393.57470276 519.44372559 -394.49509338 519.02478027 -395.44337463 518.59313965 C-424.01870622 504.30547386 -440.69925569 472.73961192 -450.72950745 443.7557373 C-461.33097685 411.50593033 -466.32231157 378.07544451 -469.34181213 344.3626709 C-469.40275055 343.68789703 -469.46368896 343.01312317 -469.526474 342.31790161 C-469.95462633 337.50290032 -470.32609744 332.68550027 -470.65431213 327.8626709 C-470.70376984 327.13745239 -470.75322754 326.41223389 -470.80418396 325.66503906 C-471.9166393 308.48663745 -471.85213567 291.27880535 -471.84299088 274.0725708 C-471.84179987 271.58707547 -471.84234865 269.10158433 -471.84300232 266.61608887 C-471.84165691 242.68543514 -471.49568724 218.78065475 -470.71681213 194.8626709 C-470.68409021 193.8532972 -470.68409021 193.8532972 -470.65070724 192.8235321 C-470.13936423 177.15914655 -469.43708384 161.51810506 -468.65431213 145.8626709 C-482.84431213 145.8626709 -497.03431213 145.8626709 -511.65431213 145.8626709 C-512.14931213 152.2976709 -512.14931213 152.2976709 -512.65431213 158.8626709 C-513.10076855 162.32265 -513.57393037 165.75797851 -514.1096344 169.20300293 C-514.25298721 170.15020203 -514.39634003 171.09740112 -514.54403687 172.07330322 C-515.01463271 175.17314395 -515.49233405 178.2718358 -515.97071838 181.3704834 C-516.30907341 183.58056244 -516.64719813 185.79067674 -516.98510742 188.00082397 C-517.69552761 192.63936728 -518.40964524 197.2773231 -519.12623596 201.91491699 C-519.84605779 206.57558074 -520.56067263 211.23698773 -521.26979065 215.89929199 C-524.85834985 239.49115834 -528.54207376 263.05456849 -532.89649963 286.5189209 C-533.05409319 287.37372166 -533.21168674 288.22852242 -533.37405586 289.10922623 C-548.96920757 373.25965143 -548.96920757 373.25965143 -569.90431213 390.9251709 C-574.24640645 393.70757723 -578.6769112 393.59367533 -583.65431213 392.8626709 C-587.09181213 391.8001709 -587.09181213 391.8001709 -589.65431213 389.8626709 C-592.30549599 384.8013199 -593.17171163 380.52902765 -593.09181213 374.8001709 C-593.08351379 373.9840332 -593.07521545 373.16789551 -593.06666565 372.32702637 C-592.6425343 355.8598624 -589.5764879 339.45699378 -586.93556213 323.22595215 C-583.080251 299.45422541 -580.04923047 275.90939745 -578.65431213 251.8626709 C-578.58518616 250.76229492 -578.51606018 249.66191895 -578.44483948 248.52819824 C-577.96794801 240.64250212 -577.75701781 232.76137937 -577.65431213 224.8626709 C-577.6433551 224.02117493 -577.63239807 223.17967896 -577.62110901 222.31268311 C-577.27492146 193.5962983 -577.73593935 164.93606509 -578.65431213 136.2376709 C-579.33071965 115.04836433 -579.86992847 93.87778033 -579.90431213 72.6751709 C-579.90930725 71.62569275 -579.91430237 70.5762146 -579.91944885 69.49493408 C-580.09720671 24.78616704 -580.09720671 24.78616704 -568.65431213 12.8626709 C-555.88623504 3.49524179 -534.16413323 0.71938784 -518.65431213 1.8626709 C-512.23967376 2.86870771 -507.75837962 4.62084463 -503.83009338 9.92126465 C-496.73865601 21.63038217 -497.18006017 36.35292524 -496.6252594 49.61340332 C-496.21834649 65.45448046 -496.21834649 65.45448046 -488.65431213 78.8626709 C-485.88948358 79.84737813 -485.88948358 79.84737813 -482.78077698 80.08972168 C-481.04570892 80.29688812 -481.04570892 80.29688812 -479.27558899 80.50823975 C-477.48305695 80.68368317 -477.48305695 80.68368317 -475.65431213 80.8626709 C-474.53389526 80.98301697 -473.41347839 81.10336304 -472.2591095 81.22735596 C-468.71853317 81.59073106 -465.17600569 81.91415083 -461.63087463 82.2298584 C-459.63761577 82.41471292 -457.64435797 82.5995796 -455.65115929 82.78508186 C-450.8229823 83.23343118 -445.99412265 83.67407326 -441.16456604 84.1072998 C-370.95555517 90.42318823 -370.95555517 90.42318823 -350.60353088 110.02282715 C-348.8278368 111.69888309 -347.02567948 113.03182527 -345.02931213 114.4251709 C-344.24556213 115.2295459 -343.46181213 116.0339209 -342.65431213 116.8626709 C-342.92072937 123.55031037 -345.41250284 129.89031854 -347.44337463 136.2142334 C-348.22875737 138.70244317 -349.01390533 141.19072706 -349.79884338 143.67907715 C-351.02466068 147.54732136 -352.2557272 151.41385508 -353.49073792 155.2791748 C-360.88340217 178.46293127 -367.80961603 201.91783257 -371.34181213 226.0501709 C-371.53621887 227.34092529 -371.73062561 228.63167969 -371.93092346 229.96154785 C-373.56369941 241.11996903 -374.74604806 252.32801721 -375.84181213 263.5501709 C-375.96016922 264.73889297 -375.96016922 264.73889297 -376.08091736 265.95162964 C-379.04355289 296.18825102 -380.01526152 326.50217076 -379.96998596 356.86828613 C-379.96531727 360.25578964 -379.97244869 363.64293719 -379.99049377 367.03039551 C-380.87886112 411.95973312 -380.87886112 411.95973312 -368.77931213 454.6126709 C-368.46389465 455.26912598 -368.14847717 455.92558105 -367.82350159 456.60192871 C-364.71152994 462.57778803 -360.1746422 466.87265923 -353.76759338 469.35876465 C-346.49969035 471.09177665 -338.16525435 470.75594859 -331.65431213 466.8626709 C-271.9507254 421.16071583 -261.43442229 274.3283717 -252.29580688 205.86308289 C-251.55594183 200.25945465 -250.82291458 194.65494825 -250.09181213 189.0501709 C-242.44495825 130.44800734 -230.60065022 67.7470696 -193.65431213 19.8626709 C-192.97368713 18.97063965 -192.29306213 18.0786084 -191.59181213 17.1595459 C-184.52935281 8.22446479 -176.55904205 0.04862873 -168.65431213 -8.1373291 C-168.05183655 -8.76606934 -167.44936096 -9.39480957 -166.82862854 -10.04260254 C-124.2483097 -53.71653354 -45.88557606 -20.7861644 0 0 Z M-110.54493713 89.60095215 C-157.28366542 137.30474312 -164.03800229 217.42435061 -168.65431213 280.8626709 C-168.79788147 282.7805542 -168.79788147 282.7805542 -168.9443512 284.73718262 C-169.96986523 299.71499033 -169.90002059 314.73188904 -169.90431213 329.7376709 C-169.90475399 330.44640099 -169.90519585 331.15513107 -169.90565109 331.88533783 C-171.47244195 406.2154129 -171.47244195 406.2154129 -142.21681213 471.5501709 C-141.37118713 472.3132959 -140.52556213 473.0764209 -139.65431213 473.8626709 C-138.93888245 474.5104248 -138.93888245 474.5104248 -138.20899963 475.17126465 C-132.24215161 480.02833659 -125.11184958 481.89011879 -117.48243713 481.84313965 C-101.05105138 480.0196566 -87.05625531 469.76509755 -76.61134338 457.40563965 C-38.31159788 407.63890448 -33.59780959 333.81513215 -27.09742737 273.39569092 C-25.26328125 256.3704266 -23.37801467 239.38723223 -20.59181213 222.4876709 C-20.4798349 221.7873877 -20.36785767 221.08710449 -20.25248718 220.36560059 C-19.02798976 212.79667942 -17.38602855 205.45874391 -15.13478088 198.1361084 C-14.92981491 197.46657135 -14.72484894 196.7970343 -14.51367188 196.10720825 C-13.40760286 192.67049481 -12.19041821 189.760809 -10.02931213 186.8626709 C-0.64336779 173.44994917 -4.19080935 150.97554296 -6.65431213 135.8626709 C-10.30566717 116.16119636 -15.91773732 90.38187944 -32.45509338 77.28845215 C-58.58490035 60.34816877 -89.29888039 68.93660416 -110.54493713 89.60095215 Z " fill="#030303" transform="translate(2964.654312133789,703.1373291015625)"/>
<path d="M0 0 C0.75337646 0.00491455 1.50675293 0.0098291 2.28295898 0.01489258 C22.18579886 0.42218125 48.44523132 7.70657833 63.64453125 21.28125 C71.87826475 32.12059536 72.19450672 46.78554703 72.75195312 59.89331055 C72.79243523 60.82336505 72.83291733 61.75341955 72.87462616 62.71165752 C73.40153709 76.1602349 73.39879431 89.62149704 73.45789146 103.0784781 C73.47646013 107.0390495 73.50074794 110.99958589 73.52453613 114.96012878 C73.57899286 124.16848834 73.62729625 133.37687443 73.67447662 142.58527374 C73.74647503 156.62589138 73.82190748 170.66648188 73.90625 184.70703125 C73.91093796 185.49907786 73.91562592 186.29112447 73.92045593 187.10717249 C74.06793763 211.85004705 74.38063861 236.58093579 75.1875 261.3125 C75.42394226 260.69816101 75.66038452 260.08382202 75.9039917 259.4508667 C90.14357224 222.47052703 104.50492948 185.81414544 122.1875 150.3125 C122.67605469 149.32604492 123.16460938 148.33958984 123.66796875 147.32324219 C151.02052069 92.40743939 151.02052069 92.40743939 175.078125 83.20703125 C187.88194858 79.52351919 201.14326766 81.43198279 212.78125 87.7421875 C228.37153133 97.9163646 236.03426111 111.90297728 239.84448242 129.62060547 C242.51953741 143.11383331 243.53886775 156.92476887 244.25 170.640625 C244.31161819 171.7924464 244.31161819 171.7924464 244.3744812 172.96753693 C245.60194439 196.31252359 245.82831929 219.69178012 246.1875 243.0625 C246.58196522 268.5516969 246.98666378 294.03913055 247.94558716 319.51456451 C248.02156824 321.54617594 248.09439699 323.57790858 248.1635437 325.6097641 C247.8048081 358.94622151 247.8048081 358.94622151 260.62109375 388.015625 C265.03502954 391.67005563 269.50515496 393.1230885 275.1875 393.3125 C282.45515615 392.08734684 287.7329252 389.15624815 293.1875 384.3125 C293.89519531 383.70921875 294.60289062 383.1059375 295.33203125 382.484375 C320.24380464 359.62313287 328.61398026 320.85961159 335.1875 289.3125 C341.88256219 257.18245854 341.88256219 257.18245854 354.0625 249.0625 C355.67030432 246.56147105 355.11510107 244.50492623 354.70898438 241.66210938 C353.73398546 237.26913675 351.84532348 233.2740813 350 229.1875 C349.59434814 228.26388672 349.18869629 227.34027344 348.77075195 226.38867188 C347.58580308 223.69229664 346.3887658 221.00163851 345.1875 218.3125 C337.25421684 200.50559507 332.78493789 184.2741349 332.8125 164.6875 C332.81331573 163.70254547 332.81331573 163.70254547 332.81414795 162.69769287 C332.85576448 151.72990587 333.82176691 141.74498304 337.1875 131.3125 C337.50098389 130.29808838 337.50098389 130.29808838 337.82080078 129.26318359 C348.74876655 94.66205153 376.28121556 71.5152124 407.45703125 55.19140625 C446.68397353 35.2003031 490.57551474 22.04745765 534.1875 16.3125 C535.14378296 16.17110596 535.14378296 16.17110596 536.11938477 16.02685547 C543.25688187 15.07586968 550.43589356 15.09104316 557.6237793 15.07226562 C559.8530867 15.06259506 562.08145596 15.03150311 564.31054688 15 C576.30205075 14.90974083 587.90183278 16.01218463 598.6875 21.6875 C599.7909375 22.25210938 600.894375 22.81671875 602.03125 23.3984375 C610.63249013 28.61453609 615.38967818 34.55200386 617.9375 44.3125 C622.79873076 65.11404557 622.32674934 87.73020678 611.1875 106.3125 C608.72573501 109.84318926 606.02703151 113.08063253 603.1875 116.3125 C602.76807129 116.80282715 602.34864258 117.2931543 601.91650391 117.79833984 C596.02370402 124.67435113 590.04195617 130.64891665 582.1875 135.3125 C581.115 135.951875 580.0425 136.59125 578.9375 137.25 C570.85233479 139.54079681 562.86785358 139.68551844 555.3125 135.75 C552.02467785 133.71718108 549.19420702 131.5094387 546.375 128.875 C534.6554019 118.00114609 519.92668209 115.61639655 504.59765625 115.9375 C487.51997117 116.77950596 473.10100318 125.46327831 461.1875 137.3125 C460.63578125 137.82941406 460.0840625 138.34632813 459.515625 138.87890625 C455.72644725 142.78012958 453.38455219 147.44552922 450.9375 152.25 C450.5957373 152.91845947 450.25397461 153.58691895 449.90185547 154.27563477 C442.56275512 169.26648771 442.7392037 187.36577429 447.12109375 203.2421875 C450.68760003 213.5105902 455.97605911 222.18274828 463.1875 230.3125 C463.87585937 231.10914063 464.56421875 231.90578125 465.2734375 232.7265625 C473.60935958 242.20604068 482.54598097 251.16332043 492.1875 259.3125 C493.25992252 260.23604181 494.33145609 261.16061639 495.40234375 262.0859375 C501.58664825 267.42285489 507.81366186 272.69506081 514.15625 277.84375 C516.4979623 279.75091775 518.83009687 281.66774798 521.15625 283.59375 C527.83587797 289.12182289 534.52653398 294.61934141 541.375 299.9375 C547.9247698 305.03197297 554.20713019 310.40556289 560.47607422 315.83935547 C562.69475041 317.7491261 564.93790533 319.62868868 567.18212891 321.50830078 C573.04468822 326.42273729 578.73700115 331.48759886 584.34375 336.69140625 C586.98694972 339.12765215 589.67401928 341.50330551 592.375 343.875 C606.54706745 356.63894536 619.85094652 372.9903426 621.37207031 392.70458984 C622.3037051 410.68380075 618.9468204 424.30603674 607.1875 438.3125 C578.26740277 469.11554179 528.0887326 476.82250319 488.19140625 478.21044922 C440.66041483 479.57775933 379.68850142 473.69945432 341.85546875 441.31640625 C338.15899752 437.80369841 335.38268159 434.16066853 332.625 429.875 C330.38903928 426.61674193 329.55290455 425.47796621 325.875 423.8125 C319.02559157 424.74123335 314.03842265 428.99439848 308.515625 432.91796875 C283.15338306 450.8625377 254.25337953 458.5361602 223.17578125 454.9140625 C209.25643865 452.46984498 196.88695267 445.47827251 187.1875 435.3125 C186.36765625 434.52166016 186.36765625 434.52166016 185.53125 433.71484375 C165.67227577 413.06362321 163.76436709 377.39400441 162.11328125 350.625 C162.07106005 349.94791677 162.02883884 349.27083355 161.98533821 348.57323265 C161.00068506 332.50910828 160.78506677 316.44620046 160.64489746 300.35626221 C160.48761217 282.71859868 160.31478764 265.08022016 159.78515625 247.44921875 C159.75594589 246.30910843 159.72673553 245.16899811 159.69664001 243.99433899 C159.43900154 236.31490449 158.51064215 228.87959332 157.1875 221.3125 C153.68172588 224.65970554 151.53090473 228.0378267 149.4375 232.375 C149.09170898 233.08487061 148.74591797 233.79474121 148.38964844 234.52612305 C147.30526852 236.78065998 146.24211411 239.04389912 145.1875 241.3125 C144.87296875 241.98603516 144.5584375 242.65957031 144.234375 243.35351562 C120.63584861 294.70030928 108.28618512 352.35731653 97 407.4375 C94.68908503 418.70822709 92.17466114 429.85728111 89.0625 440.9375 C88.76190674 442.02691895 88.46131348 443.11633789 88.15161133 444.23876953 C82.38612534 463.97298331 82.38612534 463.97298331 75.1875 468.3125 C71.83203125 469.2265625 71.83203125 469.2265625 68 469.9375 C66.74832031 470.17726563 65.49664063 470.41703125 64.20703125 470.6640625 C41.35426006 474.49526238 14.70406011 475.32196292 -5.875 463.5625 C-21.56391339 451.54545996 -26.85806094 433.93107339 -29.5625 415 C-31.77132053 396.85846884 -31.15856152 378.54386894 -30.8125 360.3125 C-30.78951843 359.09363098 -30.76653687 357.87476196 -30.74285889 356.61895752 C-28.89923012 261.8116543 -24.93929619 166.91049853 -17.625 52.4375 C-17.50705078 50.7315416 -17.50705078 50.7315416 -17.38671875 48.99111938 C-16.64340962 38.37799966 -15.81522552 27.77274553 -14.82421875 17.1796875 C-14.75258011 16.36823273 -14.68094147 15.55677795 -14.60713196 14.72073364 C-13.52750494 3.73280242 -13.52750494 3.73280242 -10.17578125 0.95703125 C-6.78673099 0.03274482 -3.48606766 -0.02694507 0 0 Z M379.1875 268.3125 C378.96984985 269.43405991 378.96984985 269.43405991 378.74780273 270.57827759 C377.34790911 277.78190823 375.93767246 284.98341297 374.51702881 292.18297768 C373.78778241 295.88041359 373.06195264 299.57843755 372.34521484 303.27832031 C371.51207226 307.57579206 370.667532 311.87089235 369.8125 316.1640625 C369.67125702 316.87419746 369.53001404 317.58433243 369.38449097 318.31598663 C366.97768738 330.31813907 364.0053076 342.11281064 360.58837891 353.86685181 C360.26015137 355.02373505 359.93192383 356.18061829 359.59375 357.37255859 C359.14999023 358.88249893 359.14999023 358.88249893 358.69726562 360.42294312 C357.99030058 364.43030571 358.40380401 367.76535108 360.24609375 371.40234375 C367.01388195 380.4707965 377.00266273 385.44448428 386.51831055 391.19677734 C391.62414702 394.30135518 396.51038368 397.57372275 401.296875 401.15625 C428.60848262 421.52923298 456.84182972 440.86166957 492.71484375 435.81640625 C503.15483011 433.43818542 510.92393994 429.10524827 517.1875 420.3125 C521.1811181 413.6135277 521.21818407 406.31756433 519.671875 398.80859375 C514.53368565 383.5199617 498.5116163 368.30551234 486.34375 358.1484375 C483.37737326 355.62271818 480.54024298 352.96514269 477.6875 350.3125 C471.87560539 344.92755136 465.96594332 339.68527191 459.94140625 334.5390625 C458.7317142 333.5052746 457.5220804 332.47141853 456.3125 331.4375 C455.70374023 330.91760498 455.09498047 330.39770996 454.46777344 329.86206055 C450.93068841 326.83318283 447.44331992 323.76078257 444 320.625 C439.84027791 316.85081313 435.53715851 313.29463888 431.171875 309.76171875 C427.79988637 306.994393 424.49084554 304.1610306 421.1875 301.3125 C416.20239407 297.01617897 411.15486197 292.81335926 406.04296875 288.66796875 C402.65116753 285.87008074 399.32657168 282.99979325 396 280.125 C388.29425361 272.3741857 388.29425361 272.3741857 379.1875 268.3125 Z " fill="#030303" transform="translate(634.8125,728.6875)"/>
<path d="M0 0 C1.53644417 -0.01052147 1.53644417 -0.01052147 3.10392761 -0.02125549 C6.44042327 -0.03883162 9.77674081 -0.04511977 13.11328125 -0.046875 C14.82973846 -0.04788712 14.82973846 -0.04788712 16.58087158 -0.04891968 C36.67786674 -0.03014728 56.46992635 0.85496561 76.42578125 3.203125 C77.23285522 3.29740784 78.0399292 3.39169067 78.87145996 3.48883057 C84.81139676 4.18814248 90.74485301 4.93132601 96.67578125 5.703125 C97.46740662 5.80458832 98.25903198 5.90605164 99.074646 6.0105896 C118.49917267 8.5366594 118.49917267 8.5366594 124.23828125 13.765625 C140.98133419 36.44279222 135.66312543 89.31423845 136.5 116.07421875 C136.52150588 116.75967286 136.54301176 117.44512696 136.56516933 118.15135241 C137.99271103 164.19298232 137.72716817 210.26640419 137.68291944 256.32461697 C137.67540976 265.04520314 137.67807224 273.76574367 137.68652344 282.48632812 C137.73284547 331.57227889 137.69992078 380.6450203 136.49609375 429.71875 C136.47520597 430.57461181 136.45431818 431.43047362 136.43279743 432.31227064 C135.99393647 450.14260127 135.43132624 467.96675126 134.72021484 485.78833008 C134.67860682 486.83155937 134.67860682 486.83155937 134.63615823 487.89586401 C133.54127163 515.08261677 132.0071127 542.21713509 128.42578125 569.203125 C128.33232422 569.90794006 128.23886719 570.61275513 128.14257812 571.33892822 C118.19316942 645.50051778 92.79603824 714.29150012 31.73828125 761.578125 C29.65416191 763.15121422 27.5475248 764.68003613 25.42578125 766.203125 C24.19988281 767.12158203 24.19988281 767.12158203 22.94921875 768.05859375 C-38.79491703 813.17930836 -131.42572182 817.61574791 -204.78491211 806.62988281 C-248.70738054 799.62545037 -287.8397447 783.73078058 -320.57421875 753.203125 C-321.70150391 752.15705078 -321.70150391 752.15705078 -322.8515625 751.08984375 C-355.54704135 719.65851347 -371.71225066 670.82945914 -372.8381958 626.27761841 C-372.90086139 622.27320432 -372.9043233 618.27041266 -372.88671875 614.265625 C-372.88522827 613.42127899 -372.88373779 612.57693298 -372.88220215 611.70700073 C-372.79877801 585.26808424 -370.26576427 560.21479376 -358.57421875 536.203125 C-358.10113281 535.22730469 -357.62804687 534.25148438 -357.140625 533.24609375 C-343.95703505 507.7379013 -322.87040137 487.84406945 -295.8671875 477.828125 C-280.49361478 473.11290781 -263.28119602 473.3656295 -248.71484375 480.62890625 C-244.31811171 483.33835737 -242.13555128 485.16727783 -240.57421875 490.203125 C-235.1125571 513.45707093 -243.89244544 541.97742044 -255.98413086 561.72216797 C-260.96411836 569.57881972 -266.73234512 576.79658783 -272.67578125 583.9375 C-290.92202762 605.91530953 -307.30313619 629.38745437 -305.57421875 659.203125 C-302.68332036 683.01988419 -291.86141143 707.72471789 -272.94921875 722.890625 C-251.63409398 739.29464345 -224.98161051 746.41999303 -198.57421875 749.203125 C-196.99640625 749.36941406 -196.99640625 749.36941406 -195.38671875 749.5390625 C-144.99437576 753.93650752 -93.72418983 742.67711361 -53.76171875 710.640625 C-48.58956735 706.281898 -43.52827542 701.80807029 -38.57421875 697.203125 C-37.9090625 696.59210937 -37.24390625 695.98109375 -36.55859375 695.3515625 C-2.74434163 663.04932979 20.94596686 609.24036647 25.42578125 563.203125 C25.52232705 557.6448456 25.22788697 552.54838868 21.42578125 548.203125 C17.96007409 546.53882957 15.02930984 545.92478597 11.20703125 545.74609375 C10.202771 545.6884082 9.19851074 545.63072266 8.16381836 545.57128906 C7.09526611 545.51166992 6.02671387 545.45205078 4.92578125 545.390625 C-12.73041324 544.17481383 -29.32466592 540.2035851 -45.57421875 533.203125 C-46.31881348 532.88359863 -47.0634082 532.56407227 -47.83056641 532.23486328 C-99.12219161 509.86716677 -127.68289277 466.94554121 -148.13671875 416.140625 C-159.49540981 387.02197536 -161.79603876 358.04091846 -161.76171875 327.015625 C-161.7611145 326.00322754 -161.76051025 324.99083008 -161.7598877 323.94775391 C-161.60917804 230.59598552 -135.2055734 132.64307839 -78.57421875 57.203125 C-78.14447754 56.6246582 -77.71473633 56.04619141 -77.27197266 55.45019531 C-39.79793753 5.12997463 -39.79793753 5.12997463 -14.58422852 0.67480469 C-9.73458372 0.00911483 -4.88781528 0.0222629 0 0 Z M-18.57421875 104.203125 C-19.48429687 104.60402344 -20.394375 105.00492188 -21.33203125 105.41796875 C-44.93945027 117.01990545 -60.2590736 143.72707244 -68.75390625 167.5859375 C-76.26661693 189.93683688 -78.3634261 213.70012186 -79.64453125 237.10546875 C-79.68824167 237.89955706 -79.7319521 238.69364536 -79.77698708 239.51179695 C-80.7391501 257.41948467 -80.84600759 275.2995559 -80.76983643 293.22851562 C-80.75889809 296.47876305 -80.75941782 299.72897013 -80.75983715 302.97923279 C-80.75823279 357.63770518 -77.05950648 408.28897154 -37.26171875 449.890625 C-26.20256018 460.72034044 -13.75227781 467.46121966 1.77270508 467.4519043 C8.14472575 467.34403548 11.90838178 466.51074118 16.67578125 462.140625 C20.52036945 455.6872091 21.60031575 448.80372614 22.44555664 441.41601562 C22.53124688 440.67330666 22.61693712 439.93059769 22.70522404 439.16538239 C23.5949833 431.14092918 24.08015085 423.10820717 24.484375 415.046875 C24.52533232 414.26188126 24.56628963 413.47688751 24.60848808 412.66810608 C25.53541153 394.83069534 26.02421721 376.98608646 26.4319458 359.13043213 C26.50619442 355.9313059 26.58555261 352.7323162 26.66508198 349.53331757 C26.91736366 339.3763478 27.14540469 329.21893648 27.3638649 319.06118774 C27.42835533 316.08430509 27.49442302 313.10745999 27.56063843 310.13061523 C28.25677683 278.59333993 28.6140496 247.06697655 28.61108398 215.52197266 C28.61100192 210.94738888 28.61810466 206.37290358 28.6315918 201.79833984 C28.69602811 179.53158853 28.72949018 157.28789022 27.5390625 135.046875 C27.50011557 134.29271805 27.46116863 133.5385611 27.42104149 132.7615509 C27.50194125 118.08967573 27.50194125 118.08967573 21.23828125 105.765625 C15.37350513 101.16445404 9.51292604 99.66091798 2.23828125 99.765625 C1.49433105 99.77319824 0.75038086 99.78077148 -0.01611328 99.78857422 C-6.72549751 99.98671728 -12.44299378 101.43278397 -18.57421875 104.203125 Z " fill="#020202" transform="translate(399.57421875,441.796875)"/>
<path d="M0 0 C0.66 0.33 1.32 0.66 2 1 C-4.27 7.27 -10.54 13.54 -17 20 C-17 15.78773475 -14.62438852 14.02396665 -11.875 11.125 C-11.1634375 10.34962891 -11.1634375 10.34962891 -10.4375 9.55859375 C-7.17703371 6.06020154 -3.72611621 2.99637238 0 0 Z " fill="#676767" transform="translate(74,936)"/>
<path d="M0 0 C0.66 0.33 1.32 0.66 2 1 C-3.61 6.61 -9.22 12.22 -15 18 C-15 13.78193333 -13.14807199 12.61332709 -10.3125 9.5625 C-9.44238281 8.61503906 -8.57226562 7.66757812 -7.67578125 6.69140625 C-5.23784139 4.23923024 -2.74711696 2.0937486 0 0 Z " fill="#676767" transform="translate(3359,823)"/>
<path d="M0 0 C0.66 0.33 1.32 0.66 2 1 C-0.64 3.64 -3.28 6.28 -6 9 C-6 6 -6 6 -3.5625 3.375 C-2.716875 2.59125 -1.87125 1.8075 -1 1 C-0.67 0.67 -0.34 0.34 0 0 Z " fill="#626262" transform="translate(2399,714)"/>
</svg>
